<svg id="Capa_1" enable-background="new 0 0 512 512" height="512" viewBox="0 0 512 512" width="512" xmlns="http://www.w3.org/2000/svg"><g><path d="m512 256c0 3.111-.055 6.208-.165 9.292-.058 1.625-4.621 1.591-4.71 3.208-1.09 19.993-5.581 37.237-11 55.75-.296 1.011 5 5.813 4.692 6.819-3.551 11.593-7.902 22.836-12.99 33.665-.594 1.264-5.464.888-6.078 2.141-10.015 20.437-21.268 38.071-36.125 55-1.027 1.171.795 5.239-.253 6.39-7.448 8.183-15.419 15.881-23.861 23.042-1.476 1.252-4.484-1.849-5.988-.63-17.195 13.932-36.232 25.68-56.689 34.823-1.512.676-1.512 5.673-3.039 6.32-10.183 4.315-20.703 7.989-31.51 10.972-1.924.531-9.668-5.833-11.61-5.346-19.999 5.016-82.684 13.567-95.273 11.663-123.071-18.611-217.401-124.844-217.401-253.109 0-141.385 114.615-256 256-256s256 114.615 256 256z" fill="#0a3575"/><path d="m510 92.367c-22.15 31.561-39.218 66.396-50.584 103.24l-22.949 74.393 20.052 140h-100.26l-100.259 40-100.26-40h-88.724c-6.087 0-10.762-5.392-9.899-11.418l13.063-91.204c3.525-24.613 1.552-49.701-5.777-73.46l-15.768-51.115c-8.749-28.361-21.887-55.175-38.937-79.469l-7.698-10.967c-4.289-6.112-1.364-14.619 5.782-16.819l147.958-45.548 100.26 40 100.259-40 147.959 45.548c7.147 2.2 10.072 10.707 5.782 16.819z" fill="#e9cc5a"/><path d="m156 30 100 40v380l-100-40z" fill="#edd578"/><path d="m256 70 100-40v380l-100 40z" fill="#fff68e"/><path d="m92.012 370.049 6.665-46.656c5.416-37.908 2.695-76.523-7.914-113.317-8.657-30.026-19.017-63.619-26.09-78.898-3.618-7.816-18.552-29.032-18.552-29.032-1.945-2.778-.619-6.645 2.622-7.645l105.966-32.706 1.291.516v317.689h-55.358c-5.305 0-9.38-4.699-8.63-9.951z" fill="#c88a1d"/><path d="m256 417.689v-315.378l11.142-4.457 88.858-35.543v317.689h-5.777l-5.364 2.146z" fill="#e9cc5a"/><path d="m357.291 61.795 106.203 32.779c3.17.978 4.526 4.716 2.72 7.499l-6.119 9.43c-8.47 13.053-15.089 27.219-19.665 42.092l-33.102 107.583-1.975 6.418.95 6.647 15.107 105.757h-65.41v-317.689zm-112.433 36.059-88.858-35.543v317.689h5.777l5.364 2.146 88.859 35.543v-315.378z" fill="#e4ab45"/><path d="m238.834 206.722c-1.212 2.858-3.988 4.575-6.909 4.575-.976 0-1.968-.192-2.924-.597l-8.916-3.78c-3.813-1.617-5.595-6.019-3.978-9.833s6.016-5.595 9.833-3.978l8.916 3.78c3.813 1.617 5.595 6.02 3.978 9.833zm-39.641-24.951-8.916-3.78c-3.814-1.618-8.216.164-9.833 3.978-1.617 3.813.165 8.216 3.978 9.833l8.916 3.78c.956.405 1.948.597 2.924.597 2.92 0 5.697-1.716 6.909-4.575 1.617-3.814-.164-8.217-3.978-9.833zm65.745 20.615-9.002 3.57c-3.85 1.527-5.734 5.886-4.207 9.737 1.167 2.943 3.989 4.737 6.974 4.737.92 0 1.856-.17 2.763-.53l9.002-3.57c3.851-1.527 5.734-5.886 4.207-9.737s-5.889-5.734-9.737-4.207zm72.011-28.565-9.002 3.571c-3.85 1.527-5.733 5.887-4.206 9.737 1.168 2.943 3.989 4.736 6.974 4.736.92 0 1.856-.17 2.764-.53l9.002-3.571c3.85-1.527 5.733-5.887 4.206-9.737-1.528-3.85-5.887-5.734-9.738-4.206zm-36.006 14.283-9.002 3.571c-3.85 1.527-5.733 5.887-4.206 9.737 1.168 2.943 3.989 4.736 6.974 4.736.92 0 1.856-.17 2.764-.53l9.002-3.571c3.85-1.527 5.733-5.887 4.206-9.737-1.528-3.851-5.886-5.734-9.738-4.206zm72.203-36.805c-3.323-2.474-8.021-1.785-10.495 1.538l-5.782 7.768c-2.473 3.322-1.784 8.021 1.538 10.494 1.346 1.001 2.916 1.484 4.473 1.484 2.289 0 4.55-1.044 6.022-3.022l5.782-7.768c2.473-3.322 1.785-8.021-1.538-10.494zm-209.616 15.352-4.604-1.951c-2.316-.982-4.971-.737-7.068.652-2.098 1.389-3.359 3.737-3.359 6.253v5c0 4.142 3.358 7.5 7.5 7.5 2.546 0 4.797-1.27 6.153-3.21 2.315-.491 4.362-2.067 5.356-4.412 1.617-3.813-.164-8.215-3.978-9.832zm-7.53 75.463c-4.142 0-7.5 3.358-7.5 7.5v10.43c0 4.142 3.358 7.5 7.5 7.5s7.5-3.358 7.5-7.5v-10.43c0-4.142-3.358-7.5-7.5-7.5zm0-41.719c-4.142 0-7.5 3.358-7.5 7.5v10.43c0 4.142 3.358 7.5 7.5 7.5s7.5-3.358 7.5-7.5v-10.43c0-4.143-3.358-7.5-7.5-7.5zm0 83.438c-3.785 0-6.915 2.804-7.427 6.447-3.465 1.237-5.58 4.868-4.816 8.575.73 3.547 3.854 5.988 7.338 5.988.501 0 1.011-.051 1.521-.156l4.897-1.009c3.486-.718 5.987-3.787 5.987-7.346v-5c0-4.141-3.358-7.499-7.5-7.499zm-30.641 11.156-8.077 1.664c-4.057.836-6.668 4.802-5.833 8.859.73 3.547 3.854 5.988 7.338 5.988.501 0 1.011-.051 1.521-.156l8.077-1.664c4.057-.836 6.668-4.802 5.833-8.859-.836-4.056-4.804-6.669-8.859-5.832z" fill="#b9801b"/><path d="m231.916 136.167h-10.17c-4.464 0-8.084-3.619-8.084-8.084 0-4.465 3.619-8.084 8.084-8.084h10.17c4.464 0 8.084 3.619 8.084 8.084 0 4.465-3.619 8.084-8.084 8.084zm-31.916 11.917c0-4.465-3.619-8.084-8.084-8.084h-10.17c-4.464 0-8.084 3.619-8.084 8.084 0 4.465 3.619 8.084 8.084 8.084h10.17c4.465-.001 8.084-3.62 8.084-8.084zm96.337 20c0-4.465-3.619-8.084-8.084-8.084h-10.17c-4.465 0-8.084 3.619-8.084 8.084 0 4.465 3.619 8.084 8.084 8.084h10.17c4.465-.001 8.084-3.62 8.084-8.084zm-83.169 161.916c0-4.465-3.619-8.084-8.084-8.084h-10.17c-4.464 0-8.084 3.619-8.084 8.084 0 4.465 3.619 8.084 8.084 8.084h10.17c4.465 0 8.084-3.619 8.084-8.084zm-13.168-28.084c0-4.465-3.619-8.084-8.084-8.084h-10.17c-4.464 0-8.084 3.619-8.084 8.084 0 4.465 3.619 8.084 8.084 8.084h10.17c4.465 0 8.084-3.619 8.084-8.084z" fill="#df9d28"/><path d="m112.655 102.406 15.423 25.42c2.022 3.332-.377 7.594-4.275 7.594h-38.795c-3.898 0-6.296-4.261-4.275-7.594l15.423-25.42c.906-1.494 2.527-2.406 4.275-2.406h7.95c1.747 0 3.368.912 4.274 2.406z" fill="#e4ab45"/><path d="m133.436 117.147 11.069 18.243c1.451 2.391-.271 5.45-3.068 5.45h-27.843c-2.797 0-4.519-3.058-3.068-5.45l11.069-18.243c.651-1.072 1.814-1.727 3.068-1.727h5.705c1.254 0 2.417.654 3.068 1.727z" fill="#edd578"/><path d="m324.781 140h-49.543c-3.018 0-5.468-2.572-5.175-5.576.004-.046.009-.092.014-.138.638-5.919 5.44-10.718 11.36-11.352 3.179-.341 6.156.479 8.561 2.087 3.965-6.873 11.636-11.339 20.282-10.669 10.404.806 18.862 9.276 19.656 19.681.014.178.025.355.034.532.155 2.958-2.226 5.435-5.189 5.435z" fill="#b9801b"/><path d="m180.068 266.896c.008-.147.017-.295.028-.443.662-8.669 7.708-15.726 16.377-16.398 7.204-.558 13.594 3.163 16.898 8.889 2.003-1.34 4.484-2.023 7.133-1.739 4.932.529 8.933 4.527 9.465 9.458.004.038.008.077.012.115.244 2.503-1.797 4.646-4.312 4.646h-41.277c-2.469 0-4.453-2.063-4.324-4.528z" fill="#b9801b"/><path d="m417.071 131.213c3.905 3.905 3.905 10.237 0 14.142s-10.237 3.905-14.142 0l-7.071-7.071-7.071 7.071c-3.905 3.905-10.237 3.905-14.142 0s-3.905-10.237 0-14.142l7.071-7.071-7.071-7.071c-3.905-3.905-3.905-10.237 0-14.142s10.237-3.905 14.142 0l7.071 7.071 7.071-7.071c3.905-3.905 10.237-3.905 14.142 0s3.905 10.237 0 14.142l-7.071 7.071z" fill="#3f4a4a"/><path d="m274.438 361.471c6.294 41.618 8.621 80.055 7.347 109.44-1.105 25.471-17.877 28.007-26.465 4.002-9.907-27.694-19.051-65.101-25.345-106.718-10.359-68.492-9.973-128.37-.469-153.46 16.498 21.158 34.574 78.244 44.932 146.736zm60.451-203.66c-16.429 21.21-34.32 78.355-44.457 146.88-6.159 41.638-8.362 80.083-6.992 109.463 1.188 25.467 17.968 27.949 26.477 3.917 9.818-27.726 18.84-65.162 24.999-106.8 10.137-68.524 9.558-128.401-.027-153.46zm98.206-17.811c-20.866 16.864-51.418 68.363-77.041 132.721-15.569 39.105-26.553 76.014-31.976 104.922-4.701 25.058 11.059 31.332 24.867 9.9 15.93-24.725 33.319-59.083 48.888-98.189 25.623-64.357 38.828-122.763 35.262-149.354zm-269.81 198.228c-1.338 35.853 12.192 91.391 35.769 140.373.06.125.121.251.181.376 9.813 20.328 26.59 12.628 31.283-14.46 2.367-13.661 3.877-28.171 4.398-43.25-1.319-2.928-2.674-5.839-4.065-8.727-23.576-48.983-50.309-77.092-67.566-74.312z" fill="#3d7a51"/><path d="m458.621 331.518c7.85 10.959 17.666 22.117 29.207 33.215-10.954 23.313-25.32 44.705-42.456 63.532-12.904-5.839-25.33-10.349-37.041-13.435 3.04 11.541 7.464 23.775 13.18 36.477-19.593 16.62-41.718 30.344-65.717 40.513-10.292-10.46-20.62-19.424-30.776-26.699-1.234 11.551-1.477 24.183-.734 37.671-21.738 6.001-44.637 9.208-68.284 9.208-9.28 0-18.444-.494-27.468-1.457-4.036-30.152-2.462-60.911 4.725-90.588 16.818 1.417 32.445 1.38 46.476-.119-8.342-11.645-18.903-23.515-31.395-35.299-1.538-1.451-2.034-3.71-1.18-5.644 8.848-20.057 20.517-39.171 35.01-56.737 1.442-1.748 3.904-2.29 5.951-1.319 14.647 6.942 28.729 12.217 41.904 15.688-3.471-13.176-8.746-27.257-15.688-41.904-.97-2.048-.429-4.509 1.319-5.951 17.567-14.492 36.68-26.162 56.737-35.01 1.935-.853 4.193-.358 5.644 1.18 11.784 12.492 23.654 23.053 35.299 31.395 1.373-12.846 1.519-27.03.447-42.241-.174-2.474 1.508-4.685 3.928-5.226 30.02-6.706 61.058-7.707 91.382-3.005 1.496 9.65 2.415 19.372 2.756 29.111-.782 22.961-4.588 45.155-11.032 66.196-15.192-1.071-29.361-.923-42.194.448z" fill="#b9e746"/><path d="m466.627 271.224c4.627-3.483 10.486 2.376 7.003 7.003-22.899 30.422-56.026 68.134-94.897 107.005s-76.583 71.998-107.005 94.897c-4.627 3.483-10.486-2.376-7.003-7.003 22.899-30.422 56.026-68.134 94.897-107.005s76.583-71.998 107.005-94.897z" fill="#84b017"/><path d="m511.834 265.292c-32.77-3.075-66.041.429-97.668 10.514.536-9.967.407-20.615-.383-31.82-.174-2.472 1.511-4.679 3.93-5.219 30.02-6.705 61.057-7.707 91.381-3.005 2.05 8.081 2.629 23.815 2.741 28.309.019.782.001 1.219-.001 1.221zm-251.651 155.676c-8.559.115-17.558-.224-26.926-1.013-7.187 29.678-8.762 60.437-4.725 90.588 5.053.539 10.15.931 15.286 1.172-.312-30.788 5.142-61.623 16.365-90.747zm54.178-126.296c5.021 10.6 9.169 20.902 12.391 30.78 23.32-20.604 49.624-36.009 77.406-46.215-8.67-7.003-17.42-15.174-26.122-24.399-1.451-1.538-3.709-2.034-5.643-1.181-20.058 8.848-39.171 20.518-56.738 35.01-1.764 1.457-2.273 3.938-1.294 6.005zm-47.005 109.572c11.706-24.697 27.774-47.84 48.207-68.272.967-.968 1.941-1.925 2.921-2.873-9.739-3.202-19.889-7.3-30.327-12.245-2.059-.975-4.529-.468-5.978 1.289-14.497 17.57-26.171 36.688-35.02 56.751-.853 1.935-.357 4.193 1.181 5.644 6.953 6.559 13.309 13.146 19.016 19.706z" fill="#9bcf1b"/><path d="m252.204 448.342c-13.295 8.094-28.316 12.719-43.628 13.647 1.375 11.103.797 22.461-1.823 33.515-3.183 13.43-18.029 20.416-30.356 14.208-4.528-2.28-7.409-7.051-11.644-10.127-4.235-3.077-9.662-4.343-13.23-7.945-9.713-9.805-7.657-26.084 4.132-33.261 13.295-8.094 28.316-12.719 43.628-13.647-1.375-11.103-.797-22.461 1.823-33.515 3.183-13.43 18.029-20.416 30.356-14.208 4.528 2.28 7.409 7.051 11.644 10.127 4.235 3.077 9.662 4.343 13.23 7.945 9.714 9.805 7.657 26.084-4.132 33.261z" fill="#ff5e93"/><path d="m256.337 491.64c-3.568 3.602-8.995 4.868-13.23 7.945s-7.116 7.847-11.644 10.127c-12.327 6.208-27.173-.779-30.356-14.208-2.62-11.054-3.198-22.412-1.823-33.515-15.312-.928-30.333-5.553-43.628-13.647-11.789-7.177-13.846-23.456-4.132-33.261 3.568-3.601 8.995-4.868 13.23-7.945s7.116-7.847 11.644-10.127c12.327-6.208 27.173.779 30.356 14.208 2.62 11.054 3.198 22.412 1.823 33.515 15.312.928 30.333 5.553 43.628 13.647 11.788 7.178 13.845 23.456 4.132 33.261z" fill="#ffa2c1"/><path d="m229.371 454.56c0 13.807-11.193 25-25 25s-25-11.193-25-25 11.193-25 25-25 25 11.193 25 25z" fill="#b40042"/><path d="m215.992 454.56c0 6.418-5.203 11.621-11.621 11.621s-11.621-5.203-11.621-11.621 5.203-11.621 11.621-11.621 11.621 5.203 11.621 11.621z" fill="#e20a62"/></g></svg>