<?xml version="1.0" encoding="UTF-8" standalone="no"?><!-- Generator: Gravit.io --><svg xmlns="http://www.w3.org/2000/svg" xmlns:xlink="http://www.w3.org/1999/xlink" style="isolation:isolate" viewBox="0 0 128 128" width="128pt" height="128pt"><defs><clipPath id="_clipPath_TL3xVz22ylrQnGrbfssTyJh4u7gHqOBl"><rect width="128" height="128"/></clipPath></defs><g clip-path="url(#_clipPath_TL3xVz22ylrQnGrbfssTyJh4u7gHqOBl)"><defs><filter id="aMGieIJCzPIZkGlWvLIUpciIsDzj9zrG" x="-200%" y="-200%" width="400%" height="400%" filterUnits="objectBoundingBox" color-interpolation-filters="sRGB"><feGaussianBlur xmlns="http://www.w3.org/2000/svg" in="SourceGraphic" stdDeviation="2.146804531419514"/><feOffset xmlns="http://www.w3.org/2000/svg" dx="0" dy="0" result="pf_100_offsetBlur"/><feFlood xmlns="http://www.w3.org/2000/svg" flood-color="#000000" flood-opacity="0.65"/><feComposite xmlns="http://www.w3.org/2000/svg" in2="pf_100_offsetBlur" operator="in" result="pf_100_dropShadow"/><feBlend xmlns="http://www.w3.org/2000/svg" in="SourceGraphic" in2="pf_100_dropShadow" mode="normal"/></filter></defs><g filter="url(#aMGieIJCzPIZkGlWvLIUpciIsDzj9zrG)"><circle vector-effect="non-scaling-stroke" cx="63.999999999999986" cy="64" r="39" fill="rgb(255,255,255)" stroke-width="8" stroke="rgb(36,36,36)" stroke-linejoin="miter" stroke-linecap="square" stroke-miterlimit="3"/></g><path d="M 48.8 60 L 79.2 60 C 81.849 60 84 62.151 84 64.8 L 84 65.2 C 84 67.849 81.849 70 79.2 70 L 48.8 70 C 46.151 70 44 67.849 44 65.2 L 44 64.8 C 44 62.151 46.151 60 48.8 60 Z" style="stroke:none;fill:#242424;stroke-miterlimit:10;"/><path d="M 48.8 73 L 79.2 73 C 81.849 73 84 75.151 84 77.8 L 84 78.2 C 84 80.849 81.849 83 79.2 83 L 48.8 83 C 46.151 83 44 80.849 44 78.2 L 44 77.8 C 44 75.151 46.151 73 48.8 73 Z" style="stroke:none;fill:#242424;stroke-miterlimit:10;"/><path d="M 48.8 46 L 79.2 46 C 81.849 46 84 48.151 84 50.8 L 84 51.2 C 84 53.849 81.849 56 79.2 56 L 48.8 56 C 46.151 56 44 53.849 44 51.2 L 44 50.8 C 44 48.151 46.151 46 48.8 46 Z" style="stroke:none;fill:#242424;stroke-miterlimit:10;"/><defs><filter id="BRaSbNlSGDtqNqdTl6rDwP9u1lz7nqGn" x="-200%" y="-200%" width="400%" height="400%" filterUnits="objectBoundingBox" color-interpolation-filters="sRGB"><feGaussianBlur xmlns="http://www.w3.org/2000/svg" in="SourceGraphic" stdDeviation="2.146804531419514"/><feOffset xmlns="http://www.w3.org/2000/svg" dx="0" dy="0" result="pf_100_offsetBlur"/><feFlood xmlns="http://www.w3.org/2000/svg" flood-color="#000000" flood-opacity="0.65"/><feComposite xmlns="http://www.w3.org/2000/svg" in2="pf_100_offsetBlur" operator="in" result="pf_100_dropShadow"/><feBlend xmlns="http://www.w3.org/2000/svg" in="SourceGraphic" in2="pf_100_dropShadow" mode="normal"/></filter></defs><g filter="url(#BRaSbNlSGDtqNqdTl6rDwP9u1lz7nqGn)"><path d=" M 64 60 L 74 60 L 114.889 20 Q 112.556 4.667 104.889 10 L 64.889 50 L 64 60 Z " fill="rgb(36,36,36)" vector-effect="non-scaling-stroke" stroke-width="4" stroke="rgb(36,36,36)" stroke-linejoin="miter" stroke-linecap="square" stroke-miterlimit="3"/></g></g></svg>